<?xml version="1.0" encoding="utf-8"?>
<!-- Generator: Adobe Illustrator 24.3.0, SVG Export Plug-In . SVG Version: 6.00 Build 0)  -->
<svg version="1.1" id="Слой_2" xmlns="http://www.w3.org/2000/svg" xmlns:xlink="http://www.w3.org/1999/xlink" x="0px" y="0px"
	 viewBox="0 0 283.3 283.3" style="enable-background:new 0 0 283.3 283.3;" xml:space="preserve">
<style type="text/css">
	.st0{fill-rule:evenodd;clip-rule:evenodd;fill:#F9FAFF;stroke:#979797; stroke-width:1px;stroke-miterlimit:10;}
</style>
<path class="st0" d="M141.7,281.7c-77.2,0-140-62.8-140-140s62.8-140,140-140s140,62.8,140,140c0,44.9-21.2,84.9-54.2,110.5
	c1.6-1.6,2.6-3.8,2.8-6.3c0.3-2.6,0.3-4.6,0.3-6.8v-3.3c-0.1-4.1-0.4-8.2-1.1-12.2c20.1-21.5,32.4-50.4,32.4-82
	c0-66.3-53.9-120.2-120.2-120.2S21.5,75.3,21.5,141.6c0,31.9,12.5,61,32.9,82.6c-0.7,4.8-1,9.8-0.9,14.9c0,2,0,4.2,0.3,6.8
	c0.3,5.5,4.9,9.5,10.4,9.1c5.5-0.3,9.5-4.9,9.1-10.4c-0.2-1.7-0.3-3-0.3-4.3c19.5,13.6,43.1,21.6,68.6,21.6c25.8,0,49.7-8.2,69.3-22
	c0,0.6-0.1,1.2-0.1,1.8c-0.1,1-0.2,2-0.2,3c-0.3,5.2,3.6,10.1,9.1,10.4h0.7c1.8,0,3.5-0.5,4.9-1.3
	C202,271.3,173.1,281.7,141.7,281.7z M211,239.9c6.7-4.8,12.9-10.2,18.5-16.2c-6.8-43.3-44.5-75.7-89.3-74.9
	c-44.1,0.9-79.9,33.4-85.9,75.4c5.7,6,11.9,11.4,18.7,16.1c0-0.4,0-0.8,0-1.2v-2.9c0.7-38.1,32.3-68.4,70.4-67.5
	c38.2,0.7,68.5,32.3,67.5,70.4C211,239.4,211,239.7,211,239.9z M225.4,253.8c0.7-0.5,1.4-1.1,2.1-1.6
	C226.9,252.9,226.2,253.4,225.4,253.8z M101.8,98.8c0,21.7,17.5,39.2,39.2,39.2s39.2-17.5,39.2-39.2S162.7,59.6,141,59.6
	S101.8,77.1,101.8,98.8z M141.7,79.4c-11.2,0-20.1,8.9-20.1,20.1s8.9,20.1,20.1,20.1s20.1-8.9,20.1-20.1S152.9,79.4,141.7,79.4z"/>
</svg>
